<svg xmlns="http://www.w3.org/2000/svg"
shape-rendering="geometricPrecision"
width="4000" height="4000" viewBox="0 0 1024 1024"><rect width="100%" height="100%" fill="#0F1829" />
  <metadata>null</metadata>

<path d="
M 53.43 443.569
C 54.93 440.093 58.987 436.883 61.812 434.465
C 62.845 433.581 64.02 432.443 65.364 432.074
C 69.971 430.81 75.764 431.927 80.505 431.893
C 97.165 431.776 113.847 431.734 130.506 431.883
C 138.576 431.954 146.97 431.237 154.991 432.214
C 155.236 438.74 153.973 445.913 155.143 452.347
C 155.03 452.237 153.966 452.285 153.794 452.278
C 152.536 452.231 151.27 452.267 150.01 452.251
C 144.845 452.188 139.679 452.142 134.514 452.125
C 113.8 452.054 93.036 451.984 72.331 452.284
C 72.103 458.336 72.24 464.447 72.276 470.504
C 72.286 472.168 71.538 475.509 72.542 476.892
C 89.848 477.095 107.184 477.013 124.506 477.077
C 129.339 477.094 134.171 477.088 139.003 477.115
C 141.156 477.127 143.913 476.622 145.905 477.583
C 149.526 479.33 152.432 482.152 154.916 485.247
C 155.645 486.156 156.733 487.161 157.246 488.207
C 157.852 489.441 157.587 491.922 157.6 493.32
C 157.637 497.183 157.52 501.031 157.424 504.888
C 157.268 511.116 157.336 517.376 157.439 523.605
C 157.478 525.926 158.413 529.594 157.599 531.766
C 155.966 536.126 150.686 540.828 146.661 542.952
C 144.026 544.342 140.89 543.883 138.004 543.863
C 132.171 543.824 126.339 543.753 120.506 543.751
C 105.437 543.748 90.375 543.797 75.311 543.995
C 68.455 544.085 61.206 543.169 54.401 543.948
C 53.524 542.761 53.849 539.563 53.86 538.092
C 53.896 533.297 53.822 528.397 54.214 523.621
C 61.286 523.215 68.421 523.702 75.498 523.697
C 89.833 523.687 104.168 523.57 118.503 523.57
C 125.153 523.57 131.94 524.019 138.569 523.522
C 138.947 523.086 138.791 522.038 138.785 521.489
C 138.77 519.992 138.786 518.495 138.788 516.998
C 138.792 512.328 138.658 507.668 138.473 503.013
C 138.393 500.99 138.801 498.961 138.264 496.97
C 122.028 497.237 105.746 496.981 89.507 497.017
C 84.561 497.027 79.615 497.042 74.669 497.136
C 72.145 497.184 69.093 497.594 66.63 496.991
C 64.994 496.591 63.573 495.413 62.259 494.421
C 59.11 492.04 55.991 488.844 54.069 485.367
C 53.107 483.625 53.389 481.688 53.41 479.788
C 53.433 477.693 53.311 475.603 53.291 473.508
C 53.192 463.66 52.531 453.377 53.43 443.569 Z"
opacity="1" fill="rgb(252,252,253)" fill-rule="evenodd" />
<path d="
M 185.495 446.126
C 186.009 443.431 187.871 441.873 189.734 439.998
C 191.697 438.023 193.598 435.986 195.644 434.097
C 196.905 432.932 198.319 431.183 200.102 430.943
C 207.663 429.923 215.878 430.812 223.502 430.817
C 238.501 430.828 253.501 430.783 268.5 430.798
C 274.833 430.804 281.167 430.762 287.5 430.799
C 289.662 430.811 293.459 430.103 295.42 431.005
C 296.744 431.615 297.891 433.203 298.907 434.216
C 301.204 436.509 303.576 438.773 305.734 441.198
C 306.633 442.208 307.957 443.631 308.216 444.997
C 308.947 448.86 308.215 453.563 308.214 457.503
C 308.212 466.503 308.215 475.503 308.209 484.503
C 308.201 495.336 308.207 506.17 308.22 517.003
C 308.224 520.296 308.168 523.596 308.245 526.888
C 308.286 528.689 308.534 530.637 308.232 532.424
C 308.039 533.562 306.873 534.473 306.172 535.332
C 304.022 537.965 300.85 540.125 298.959 542.884
C 302.369 545.632 305.307 549.269 308.337 552.432
C 311.878 556.127 315.605 559.601 319.255 563.18
C 319.336 563.272 318.618 563.205 318.573 563.205
C 317.879 563.201 317.187 563.214 316.492 563.189
C 314.5 563.119 312.503 563.138 310.51 563.128
C 304.916 563.1 299.231 563.512 293.651 563.196
C 291.563 562.331 289.652 559.462 288.098 557.849
C 284.087 553.688 280.107 549.496 276.099 545.333
C 274.265 544.698 271.467 545.267 269.508 545.27
C 264.841 545.275 260.174 545.248 255.507 545.241
C 242.84 545.223 230.172 545.241 217.505 545.275
C 211.495 545.291 204.92 546.144 198.968 545.382
C 197.704 544.918 196.563 543.388 195.62 542.458
C 193.209 540.081 190.826 537.681 188.486 535.234
C 187.398 534.096 185.7 532.67 185.482 531.031
C 185.134 528.41 185.602 525.633 185.572 522.995
C 185.487 515.5 185.653 507.997 185.631 500.5
C 185.602 490.524 185.646 480.547 185.584 470.571
C 185.534 462.441 185.123 454.252 185.495 446.126 Z
M 249.071 515.428
C 246.494 512.314 243.072 509.922 240.488 506.79
C 243.274 505.869 246.604 506.574 249.5 506.6
C 255.033 506.649 261.11 505.912 266.575 506.768
C 269.251 508.503 271.424 511.503 273.813 513.643
C 274.355 514.352 274.944 514.859 275.606 515.452
C 278.576 518.298 281.881 521.188 284.46 524.389
C 284.997 523.342 284.284 520.745 284.286 519.494
C 284.292 514.83 284.26 510.166 284.261 505.501
C 284.266 494.502 284.229 483.502 284.232 472.503
C 284.233 466.374 284.557 460.102 284.092 453.996
C 278.482 454.383 272.645 454.029 267.005 454.039
C 255.172 454.059 243.34 454.014 231.507 454.025
C 227.179 454.03 222.837 454.108 218.51 454.004
C 215.745 453.938 212.536 453.617 209.84 454.271
C 209.76 469.845 209.747 485.428 209.798 501.005
C 209.823 508.373 209.511 515.815 209.871 523.173
C 219.746 523.074 229.624 523.091 239.5 523.043
C 245.08 523.015 251.274 522.444 256.787 523.247
C 254.496 520.509 251.79 517.745 249.071 515.428 Z"
opacity="1" fill="rgb(254,254,255)" fill-rule="evenodd" />
<path d="
M 340.478 431.981
C 340.577 431.847 340.677 431.712 340.776 431.578
C 347.219 431.243 353.758 431.321 360.189 431.66
C 360.569 438.571 360.324 445.571 360.334 452.497
C 360.356 467.333 360.193 482.168 360.229 497.004
C 360.244 503.003 360.263 509.002 360.231 515.002
C 360.217 517.548 359.492 521.153 360.352 523.54
C 380.057 523.474 399.791 523.573 419.504 523.582
C 424.501 523.585 429.5 523.667 434.497 523.658
C 435.621 523.656 438.69 522.94 439.516 523.697
C 440.144 528.679 439.614 533.982 439.625 539.005
C 439.628 540.268 439.663 541.53 439.619 542.792
C 439.611 543.035 439.715 543.712 439.466 543.848
C 418.699 543.047 397.792 543.774 377.008 543.724
C 372.421 543.712 367.835 543.778 363.248 543.783
C 358.627 543.788 354.653 543.958 350.722 541.242
C 347.204 538.812 342.605 535.082 341.006 530.974
C 340.149 528.773 340.621 525.59 340.641 523.262
C 340.685 518.008 340.734 512.754 340.738 507.499
C 340.756 482.332 340.866 457.131 340.478 431.981 Z"
opacity="1" fill="rgb(252,252,254)" fill-rule="evenodd" />
<path d="
M 342.048 582.124
C 342.198 580.935 342.284 579.858 342.818 578.766
C 345.993 572.275 355.665 574.063 361.419 574.107
C 363.779 574.125 366.14 574.108 368.5 574.106
C 371.006 574.105 373.514 574.078 376.019 574.193
C 376.798 574.229 378.167 574.028 378.796 574.466
C 378.863 576.276 378.768 578.103 378.876 579.91
C 371.633 580.136 364.265 579.76 357.006 579.76
C 354.496 579.76 350.52 578.903 348.748 581.104
C 347.879 583.001 348.194 585.775 348.175 587.834
C 348.148 590.816 347.166 596.372 349.601 598.606
C 351.307 600.17 355.379 599.331 357.498 599.292
C 364.24 599.167 370.983 599.23 377.716 599.187
C 378.503 600.423 378.889 603.276 378.178 604.601
C 375.616 605.37 372.258 604.914 369.597 604.929
C 364.543 604.958 359.491 605.036 354.436 605.043
C 350.406 605.049 345.945 604.336 343.628 600.54
C 341.978 597.838 342.104 594.514 342.118 591.466
C 342.132 588.352 342.03 585.237 342.048 582.124 Z"
opacity="1" fill="rgb(238,241,245)" fill-rule="evenodd" />
<path d="
M 388.289 574.459
C 389.64 574.037 391.606 573.522 393.029 573.775
C 398.075 574.673 402.219 580.142 406.007 583.241
C 407.213 584.229 408.832 586.085 410.319 586.557
C 412.201 585.744 413.93 583.78 415.458 582.426
C 418.242 579.957 421.164 577.655 424.079 575.344
C 425.951 573.861 430.124 572.699 432.291 574.266
C 432.241 576.63 429.318 578.19 427.738 579.611
C 424.684 582.357 421.603 585.074 418.474 587.735
C 416.897 589.076 415.003 590.396 413.779 592.073
C 413.138 596.113 413.555 600.306 413.553 604.378
C 412.18 605.037 409.43 604.369 407.911 604.426
C 407.349 603.287 407.411 601.175 407.504 599.903
C 407.682 597.453 407.853 594.495 407.41 592.078
C 401.315 585.908 394.122 580.925 388.289 574.459 Z"
opacity="1" fill="rgb(233,238,242)" fill-rule="evenodd" />
<path d="
M 443.167 431.71
C 451.445 430.893 460.171 431.756 468.498 431.756
C 486.165 431.756 503.832 431.801 521.499 431.771
C 527.999 431.759 534.501 431.783 541.001 431.799
C 542.672 431.803 544.343 431.819 546.013 431.856
C 546.519 431.867 547.367 431.713 547.756 432.055
C 547.728 436.863 547.896 441.688 547.739 446.502
C 547.684 448.157 548.065 450.418 547.529 451.988
C 544.324 452.823 540.312 452.22 537.009 452.219
C 530.009 452.217 523.009 452.184 516.009 452.225
C 513.383 452.241 510.756 452.253 508.13 452.264
C 507.311 452.268 505.638 451.983 505.067 452.588
C 504.658 462.178 505.075 471.904 505.157 481.51
C 505.266 494.176 505.138 506.842 505.188 519.507
C 505.211 525.451 505.193 531.394 505.185 537.337
C 505.183 539.165 505.783 542.517 504.639 544.072
C 498.241 543.958 491.818 544.147 485.42 543.994
C 484.963 541.403 485.242 538.624 485.251 535.999
C 485.269 531.333 485.275 526.667 485.266 522.001
C 485.234 506.834 485.225 491.665 485.291 476.498
C 485.314 471.331 485.31 466.164 485.313 460.997
C 485.315 458.122 485.57 455.116 485.225 452.261
C 476.851 451.873 468.391 452.227 460.008 452.251
C 454.595 452.267 448.893 451.757 443.521 452.44
C 442.965 445.603 443.059 438.568 443.167 431.71 Z"
opacity="1" fill="rgb(252,253,254)" fill-rule="evenodd" />
<path d="
M 443.83 575.549
C 443.91 575.351 443.989 575.152 444.068 574.953
C 446.234 573.294 449.908 574.222 452.501 574.247
C 457.833 574.299 463.169 574.25 468.502 574.252
C 471.295 574.254 474.762 573.942 477.389 575.096
C 480.923 576.649 482.172 580.212 482.145 583.799
C 482.129 586.057 482.157 587.621 480.141 588.937
C 480.923 590.169 481.867 591.178 482.175 592.65
C 483.283 597.935 479.9 603.499 474.658 604.861
C 472.745 605.358 470.47 605.022 468.506 605.021
C 464.339 605.019 460.171 605.055 456.003 605.06
C 453.336 605.063 450.664 605.036 447.997 605.073
C 446.942 605.087 445.388 605.447 444.471 604.764
C 442.81 603.525 443.765 599.366 443.767 597.5
C 443.773 592.834 443.747 588.169 443.729 583.503
C 443.719 580.887 443.461 578.144 443.83 575.549 Z
M 449.829 580.905
C 449.348 582.558 449.607 584.304 449.61 586.002
C 449.615 588.835 449.585 591.668 449.597 594.502
C 449.602 595.555 449.114 598.41 449.829 599.108
C 457.319 599.173 465.101 599.771 472.567 599.222
C 475.106 599.035 477.418 596.191 476.358 593.607
C 475.45 591.392 473.077 591.919 471.16 591.857
C 466.417 591.703 461.724 592.211 456.98 591.938
C 456.242 590.663 455.969 587.618 456.909 586.444
C 460.734 585.84 465.254 586.217 469.143 586.282
C 470.849 586.311 472.745 586.67 474.394 586.178
C 477.189 584.254 476.458 580.086 472.904 579.688
C 470.189 579.384 467.444 579.712 464.724 579.76
C 461.338 579.82 457.906 579.723 454.561 580.264
C 453.084 580.502 451.671 580.083 450.191 580.473
C 450.07 580.617 449.95 580.761 449.829 580.905 Z"
opacity="1" fill="rgb(233,237,242)" fill-rule="evenodd" />
<path d="
M 496.857 581.564
C 497.259 580.303 497.69 579.043 498.465 577.951
C 501.301 573.953 506.576 574.169 511.003 574.205
C 517.806 574.262 524.859 574.769 531.575 573.617
C 531.86 575.553 532.295 577.386 531.81 579.35
C 529.788 579.964 527.108 579.51 525.002 579.512
C 520.836 579.516 516.668 579.513 512.503 579.564
C 510.686 579.586 508.673 579.322 506.88 579.597
C 503.944 580.048 503.046 581.907 502.84 584.521
C 502.777 585.321 502.456 586.331 503.06 586.916
C 508.846 586.522 514.701 586.815 520.5 586.748
C 524.112 586.707 528.308 586.163 531.843 586.992
C 531.714 588.79 531.334 590.55 531.222 592.35
C 527.192 592.494 523.051 592.051 519.003 592.049
C 513.804 592.047 508.473 592.449 503.298 592.212
C 502.363 594.079 502.584 598.303 505.12 598.822
C 507.286 599.265 509.801 598.968 512.004 598.948
C 515.837 598.913 519.671 598.918 523.504 598.934
C 526.059 598.945 529.014 598.789 531.426 599.766
C 531.574 600.801 532.043 603.757 531.323 604.572
C 523.93 604.045 516.179 604.85 508.754 604.937
C 504.446 604.988 499.647 604.242 497.514 599.875
C 496.108 596.997 496.722 593.062 496.686 589.961
C 496.654 587.191 496.303 584.295 496.857 581.564 Z"
opacity="1" fill="rgb(238,242,244)" fill-rule="evenodd" />
<path d="
M 546.451 576.588
C 546.817 575.474 547.313 574.623 548.443 574.162
C 554.733 573.77 561.183 574.219 567.5 574.23
C 571.091 574.236 575.46 573.663 578.925 574.74
C 584.06 576.337 586.423 582.359 584.01 587.057
C 582.451 590.091 579.65 590.948 576.408 591.147
C 575.436 591.207 574.153 591.5 573.201 591.276
C 572.928 591.212 572.155 590.908 571.943 591.222
C 571.76 591.494 573.112 592.477 573.265 592.595
C 574.667 593.67 576.061 594.755 577.465 595.829
C 579.833 597.638 582.115 599.668 584.281 601.715
C 585.197 602.58 585.821 603.72 586.84 604.488
C 586.379 604.774 585.505 604.599 584.974 604.631
C 583.225 604.735 580.929 605.197 579.236 604.569
C 577.655 603.984 576.322 602.35 574.996 601.348
C 571.343 598.585 567.971 595.469 564.371 592.643
C 562.358 591.062 560.254 589.657 559.726 586.962
C 560.364 586.376 560.98 585.869 561.685 585.364
C 562.908 585.011 564.407 585.427 565.685 585.458
C 568.178 585.518 570.657 585.239 573.157 585.426
C 575.023 585.566 577.24 586.102 578.532 584.355
C 578.853 582.739 577.844 579.896 576.024 579.411
C 574.382 578.973 572.194 579.311 570.505 579.347
C 566.665 579.428 562.827 579.576 558.986 579.642
C 556.734 579.68 554.498 579.089 552.773 580.872
C 552.097 582.405 552.621 584.344 552.551 585.986
C 552.375 590.061 552.585 594.087 552.576 598.159
C 552.573 599.776 552.47 601.368 552.325 602.977
C 552.283 603.45 552.378 604.143 552.028 604.498
C 550.67 604.74 548.047 605.237 546.772 604.651
C 546.233 598.989 546.613 593.185 546.615 587.495
C 546.617 583.915 546.122 580.143 546.451 576.588 Z"
opacity="1" fill="rgb(239,243,246)" fill-rule="evenodd" />
<path d="
M 571.994 538.628
C 572.839 533.742 571.896 528.574 572.137 523.656
C 589.077 523.349 606.052 523.683 622.998 523.725
C 639.237 523.765 655.504 523.495 671.738 523.786
C 671.397 527.27 671.791 531 671.827 534.507
C 671.859 537.577 671.488 540.808 671.763 543.853
C 669.466 544.419 666.38 543.904 664.004 543.891
C 658.838 543.862 653.671 543.884 648.505 543.88
C 631.338 543.869 614.171 543.813 597.004 543.818
C 591.171 543.819 585.337 543.816 579.505 543.875
C 577.1 543.899 573.991 544.663 571.877 543.161
C 571.606 541.776 571.902 540.044 571.994 538.628 Z"
opacity="1" fill="rgb(252,253,254)" fill-rule="evenodd" />
<path d="
M 572.41 431.771
C 576.591 430.985 581.249 431.729 585.5 431.737
C 594.334 431.754 603.167 431.714 612 431.792
C 624.497 431.902 637.005 431.926 649.503 431.83
C 656.741 431.774 664.266 431.208 671.473 431.919
C 671.466 436.986 671.712 442.053 671.47 447.128
C 671.4 448.578 671.967 450.892 671.367 452.218
C 667.807 452.588 664.088 452.256 660.511 452.243
C 653.844 452.218 647.176 452.248 640.509 452.253
C 617.805 452.27 595.078 452.01 572.384 452.611
C 572.792 445.696 572.072 438.703 572.41 431.771 Z"
opacity="1" fill="rgb(252,253,254)" fill-rule="evenodd" />
<path d="
M 572.286 476.828
C 578.002 476.677 583.776 477.116 589.506 477.151
C 603.171 477.235 616.837 477.236 630.502 477.242
C 639.168 477.246 647.835 477.237 656.501 477.23
C 661.414 477.227 666.555 476.906 671.44 477.436
C 671.089 482.18 671.644 487.208 671.577 491.997
C 671.558 493.427 672.152 496.02 671.195 497.173
C 669.604 498.118 666.785 497.439 665.005 497.428
C 660.006 497.396 655.006 497.332 650.007 497.28
C 631.844 497.089 613.67 497.237 595.506 497.285
C 590.005 497.3 584.506 497.317 579.006 497.416
C 577.373 497.446 574.194 498.231 572.892 497.044
C 571.729 495.58 572.261 493.254 572.256 491.502
C 572.242 486.617 572.458 481.707 572.286 476.828 Z"
opacity="1" fill="rgb(253,253,255)" fill-rule="evenodd" />
<path d="
M 599.438 581.088
C 600.404 578.102 602.134 575.741 605.178 574.573
C 607.875 573.538 611.66 574.275 614.502 574.293
C 621.08 574.335 627.776 573.963 634.325 574.491
C 635.024 575.394 636.969 578.513 636.431 579.7
C 633.581 580.175 630.396 579.76 627.507 579.75
C 620.816 579.727 614.095 579.522 607.408 579.654
C 605.406 580.826 604.074 586.2 607.105 587.063
C 608.93 587.583 611.333 587.257 613.216 587.258
C 616.979 587.261 620.741 587.283 624.504 587.275
C 626.569 587.271 628.44 586.937 630.485 587.333
C 632.996 587.819 637.615 589.838 637.841 592.85
C 637.966 594.498 637.845 596.298 637.599 597.932
C 637.101 601.239 633.824 604.017 630.702 604.857
C 629.171 605.269 627.43 605.046 625.858 605.041
C 622.612 605.032 619.369 604.918 616.124 604.95
C 611.415 604.998 606.264 605.726 601.668 604.584
C 600.706 603.55 601.584 601.071 602.255 600.07
C 603.495 598.899 606.4 599.43 608.015 599.408
C 613.171 599.336 618.349 599.235 623.503 599.394
C 626.049 599.473 629.31 600.325 631.005 597.884
C 631.633 596.089 631.316 594.248 630.198 592.74
C 628.275 591.896 625.269 592.47 623.2 592.512
C 619.227 592.594 615.249 592.557 611.275 592.583
C 609.366 592.596 607.053 593.028 605.213 592.442
C 601.741 591.337 599.319 588.659 599.285 584.986
C 599.273 583.692 599.222 582.368 599.438 581.088 Z"
opacity="1" fill="rgb(237,241,244)" fill-rule="evenodd" />
<path d="
M 650.884 582.589
C 651.69 579.431 652.84 576.682 655.96 575.175
C 658.797 573.804 662.611 574.426 665.668 574.393
C 672.462 574.32 679.298 574.147 686.087 574.346
C 686.304 576.249 685.765 578.363 686.155 580.215
C 681.335 579.707 676.301 579.933 671.458 579.944
C 667.837 579.952 664.074 579.655 660.473 579.968
C 658.046 580.179 655.223 584.275 657.083 586.406
C 663.666 587.565 670.821 586.785 677.501 586.761
C 680.107 586.751 683.454 585.745 685.527 587.735
C 685.815 589.319 685.708 590.587 684.994 592.044
C 682.683 592.751 679.426 592.052 677.003 592.07
C 670.414 592.12 663.514 591.584 656.976 592.409
C 655.816 594.665 656.531 598.705 659.384 599.287
C 661.408 599.7 663.825 599.264 665.89 599.247
C 672.474 599.195 679.271 598.289 685.826 599.069
C 685.916 600.307 686.492 603.551 685.858 604.6
C 679.168 604.652 672.452 604.768 665.765 604.977
C 660.275 605.149 654.985 605.753 651.597 600.394
C 650.841 599.197 651.296 597.481 651.092 596.146
C 650.776 594.078 651.005 592.035 650.931 589.957
C 650.841 587.444 650.519 585.112 650.884 582.589 Z"
opacity="1" fill="rgb(234,238,241)" fill-rule="evenodd" />
<path d="
M 667.228 570.755
C 669.031 567.992 670.102 564.74 672.055 562.083
C 673.825 561.791 677.285 561.891 678.833 562.955
C 676.727 565.538 674.71 568.47 672.28 570.758
C 671.481 571.11 667.802 571.393 667.228 570.755 Z"
opacity="1" fill="rgb(216,222,228)" fill-rule="evenodd" />
<path d="
M 696.919 432.603
C 696.961 432.37 697.079 431.534 697.312 431.514
C 697.565 431.493 698.371 432.088 698.705 432.354
C 700.094 433.46 701.35 434.751 702.652 435.957
C 708.195 441.088 713.591 446.386 719.204 451.441
C 729.893 461.067 740.448 470.923 750.891 480.81
C 753.973 483.729 757.021 486.687 760.032 489.677
C 761.574 491.208 763.001 493.098 764.773 494.358
C 765.164 494.34 765.801 493.53 766.06 493.274
C 767.24 492.111 768.443 490.973 769.676 489.868
C 774.409 485.625 779.234 481.439 783.764 476.984
C 795.026 465.907 807.101 455.334 819.071 445.029
C 824.002 440.784 828.319 435.356 833.685 431.68
C 834.385 433.941 833.742 437.144 833.739 439.507
C 833.73 445.339 833.747 451.171 833.741 457.003
C 833.722 476.502 833.515 495.998 833.449 515.492
C 833.426 522.162 833.316 528.833 833.341 535.503
C 833.35 537.813 834.091 541.804 833.037 543.909
C 831.327 544.393 828.804 543.927 827.004 543.898
C 822.554 543.827 818.073 543.673 813.625 543.791
C 812.927 542.22 813.344 539.71 813.336 538.004
C 813.317 533.674 813.384 529.341 813.381 525.01
C 813.374 510.209 813.673 495.306 813.074 480.534
C 807.545 484.031 802.933 489.006 797.932 493.197
C 786.76 502.559 775.949 512.386 764.887 521.88
C 764.012 521.925 762.373 519.748 761.719 519.127
C 758.98 516.532 756.209 513.953 753.404 511.429
C 741.84 501.024 730.605 489.999 718.481 480.242
C 716.693 479.179 717.222 483.839 717.23 485.004
C 717.267 490.504 717.278 496.005 717.282 501.505
C 717.287 510.672 717.243 519.837 717.23 529.003
C 717.223 533.879 716.839 538.991 717.343 543.84
C 710.807 545.022 703.498 543.834 696.881 543.98
C 696.208 539.906 697.059 535.425 697.072 531.303
C 697.103 521.214 696.967 511.104 696.935 501.005
C 696.897 489.001 697.275 477.001 697.062 465.001
C 696.944 458.341 696.984 451.671 696.923 445.005
C 696.885 440.887 696.497 436.708 696.919 432.603 Z"
opacity="1" fill="rgb(252,252,254)" fill-rule="evenodd" />
<path d="
M 699.548 584.123
C 699.847 582.436 699.56 580.586 700.409 579.014
C 701.737 576.554 704.382 575.082 707.054 574.578
C 712.806 573.494 719.502 574.135 725.334 574.379
C 727.931 574.487 730.517 574.334 733.111 574.4
C 733.854 574.419 735.263 574.255 735.783 574.822
C 735.768 576.086 735.807 577.473 736.005 578.725
C 736.041 578.954 736.357 579.806 736.048 579.908
C 729.39 580.157 722.667 579.843 716.002 579.821
C 713.922 579.814 711.858 579.872 709.781 579.97
C 709.026 580.005 708.139 579.822 707.428 580.13
C 706.332 580.605 705.476 582.449 705.387 583.56
C 705.096 587.218 705.413 591.21 705.612 594.878
C 705.7 596.494 705.965 598.173 707.556 598.983
C 709.848 600.149 713.989 599.342 716.496 599.281
C 722.698 599.129 728.909 599.284 735.113 599.267
C 735.873 600.376 735.671 603.375 735.527 604.703
C 734.578 605.224 732.623 604.929 731.537 604.892
C 728.809 604.799 726.073 604.824 723.344 604.884
C 716.537 605.033 706.102 607.39 701.397 601.028
C 699.488 598.447 699.71 594.907 699.694 591.873
C 699.68 589.303 699.425 586.684 699.548 584.123 Z"
opacity="1" fill="rgb(238,241,245)" fill-rule="evenodd" />
<path d="
M 749.943 575.43
C 751.396 574.808 753.9 574.153 755.363 575.077
C 756.074 576.732 755.806 578.741 755.807 580.502
C 755.81 584.003 755.801 587.503 755.805 591.004
C 755.808 593.223 755.573 595.597 756.878 597.522
C 758.263 599.565 760.996 599.083 763.153 598.995
C 767.447 598.82 771.741 599.142 776.031 599.242
C 778.579 599.302 781.031 599.288 782.324 596.714
C 783.291 594.79 782.868 592.312 782.9 590.237
C 782.978 585.123 782.219 579.641 783.125 574.588
C 784.83 574.211 786.988 574.251 788.674 574.68
C 789.611 577.479 789.111 580.968 789.118 583.882
C 789.126 587.095 789.083 590.284 788.932 593.491
C 788.866 594.894 789.034 596.404 788.59 597.761
C 787.62 600.729 784.971 603.079 782.205 604.366
C 780.639 605.095 778.905 604.985 777.224 605.027
C 774.162 605.104 771.098 605.063 768.036 605.084
C 762.707 605.12 756.574 606.281 752.576 601.959
C 749.278 598.393 749.72 593.604 749.768 589.103
C 749.814 584.698 749.51 580.26 749.681 575.862
C 749.768 575.718 749.855 575.574 749.943 575.43 Z"
opacity="1" fill="rgb(238,240,242)" fill-rule="evenodd" />
<path d="
M 803.355 575.529
C 803.448 575.373 803.541 575.216 803.635 575.059
C 805.559 573.607 809.825 574.314 812.174 574.31
C 817.452 574.301 822.73 574.446 828.008 574.391
C 831.385 574.355 834.93 573.88 838.031 575.475
C 843.466 578.27 845.851 586.93 839.281 590.165
C 836.189 591.687 832.064 590.287 828.913 591.292
C 833.855 595.387 840.756 598.956 844.447 604.339
C 844.279 604.702 842.837 604.312 842.481 604.344
C 840.873 604.487 837.312 605.225 835.944 604.203
C 831.507 600.89 827.45 596.941 823.127 593.465
C 821.712 592.327 819.416 591.112 818.591 589.428
C 818.12 588.467 818.412 587.046 818.559 586.039
C 819.801 585.232 822.023 585.736 823.498 585.722
C 828.051 585.676 833.239 586.804 837.174 584.227
C 837.598 582.526 835.937 579.896 834.204 579.542
C 832.257 579.145 830.146 579.391 828.177 579.432
C 824.262 579.515 820.348 579.623 816.432 579.693
C 814.205 579.732 811.396 579.093 809.449 580.396
C 808.836 582.167 809.143 584.414 809.151 586.272
C 809.167 589.875 809.207 593.478 809.199 597.081
C 809.195 599.19 808.61 602.125 809.213 604.137
C 807.244 604.271 805.259 604.211 803.299 604.399
C 802.439 602.53 803.11 598.585 803.128 596.495
C 803.168 592.034 803.274 587.569 803.236 583.108
C 803.215 580.675 802.813 577.913 803.355 575.529 Z"
opacity="1" fill="rgb(239,242,245)" fill-rule="evenodd" />
<path d="
M 857.475 601.626
C 857.807 599.783 857.554 597.732 857.573 595.862
C 857.619 591.407 857.592 586.954 857.574 582.499
C 857.564 579.977 857.324 577.297 857.759 574.806
C 859.555 574.463 861.351 574.75 863.152 574.854
C 864.034 576.692 863.295 580.461 863.296 582.508
C 863.297 587.505 863.391 592.502 863.362 597.501
C 863.349 599.619 863.751 602.138 863.164 604.191
C 861.873 604.985 859.365 604.347 857.914 604.358
C 857.315 603.621 857.439 602.532 857.475 601.626 Z"
opacity="1" fill="rgb(241,243,247)" fill-rule="evenodd" />
<path d="
M 858.43 433.128
C 858.554 432.526 858.508 432.881 858.497 432.054
C 860.46 431.186 863.392 431.869 865.506 431.874
C 870.676 431.886 875.841 431.835 881.01 431.933
C 897.51 432.246 913.997 431.836 930.505 431.878
C 935.171 431.889 939.839 431.75 944.505 431.811
C 947.599 431.852 950.324 431.625 952.956 433.401
C 956.805 435.999 961.007 439.952 962.461 444.488
C 963.215 446.839 962.718 450.042 962.726 452.505
C 962.746 458.305 962.727 464.105 962.772 469.905
C 962.799 473.343 962.884 476.782 962.87 480.22
C 962.864 481.736 963.203 483.77 962.527 485.175
C 960.458 489.482 955.092 494.794 950.776 496.835
C 948.603 497.863 945.684 497.474 943.364 497.405
C 938.913 497.272 934.46 497.263 930.007 497.262
C 918.341 497.259 906.675 497.229 895.009 497.229
C 889.726 497.229 884.366 496.871 879.097 497.155
C 878.552 501.867 878.888 506.758 878.871 511.497
C 878.833 522.238 879.133 533.024 878.82 543.759
C 872.183 544.662 865.144 543.507 858.454 543.844
C 857.87 543.091 858.373 540.517 858.408 539.526
C 858.559 535.349 858.677 531.185 858.612 527.005
C 858.353 510.423 859.351 493.785 858.802 477.211
C 874.154 476.6 889.636 477.185 905.003 477.188
C 915.837 477.191 926.668 477.061 937.503 477.199
C 939.337 477.222 941.162 476.889 942.99 476.949
C 943.402 476.697 943.327 475.939 943.362 475.48
C 943.477 473.997 943.381 472.491 943.381 471.005
C 943.382 466.701 943.303 462.396 943.299 458.092
C 943.298 456.297 943.804 453.826 943.101 452.146
C 935.636 452.675 927.992 452.246 920.508 452.255
C 907.842 452.271 895.175 452.426 882.51 452.382
C 874.785 452.355 866.463 451.604 858.808 452.571
C 858.086 451.726 858.685 448.68 858.665 447.514
C 858.585 442.761 858.075 437.87 858.43 433.128 Z"
opacity="1" fill="rgb(252,252,253)" fill-rule="evenodd" />
<path d="
M 873.385 577.094
C 873.589 576.071 874.005 575.24 874.484 574.321
C 875.507 573.985 876.907 574.253 877.996 574.244
C 880.664 574.222 883.332 574.242 885.999 574.238
C 894.303 574.226 902.817 573.59 911.096 574.197
C 911.409 575.884 911.626 577.641 911.35 579.355
C 907.839 579.442 904.319 579.378 900.816 579.513
C 899.326 579.571 897.702 579.154 896.323 579.822
C 895.618 585.884 896.231 592.396 896.255 598.505
C 896.262 600.042 896.234 601.571 896.182 603.106
C 896.175 603.312 896.303 604.359 896.136 604.428
C 894.187 604.623 892.201 604.314 890.259 604.64
C 889.6 602.331 890.242 598.925 890.25 596.503
C 890.266 590.822 890.025 585.064 890.512 579.401
C 885.024 579.069 879.468 579.045 873.981 579.459
C 873.427 578.814 873.383 577.926 873.385 577.094 Z"
opacity="0.996" fill="rgb(238,242,244)" fill-rule="evenodd" />
<path d="
M 923.965 582.613
C 924.178 581.519 924.291 580.448 924.758 579.417
C 927.055 574.352 932.838 574.399 937.499 574.317
C 944.817 574.188 952.292 574.724 959.576 573.966
C 960.012 575.601 959.388 578.101 959.332 579.808
C 951.729 580.823 943.843 579.237 936.182 579.969
C 935.02 580.08 933.744 579.768 932.617 580.127
C 930.721 580.731 929.299 583.155 929.84 585.06
C 931.248 587.484 934.915 586.315 937.29 586.517
C 942.191 586.933 947.213 586.529 952.131 586.577
C 954.312 586.599 956.871 586.27 958.868 587.286
C 959.258 588.521 959.494 590.913 958.416 591.862
C 951.543 592.593 944.353 591.685 937.434 591.922
C 935.547 591.986 931.232 591.223 930.08 592.871
C 929.878 593.488 929.812 594.017 929.794 594.67
C 929.678 599.049 933.067 598.943 936.466 598.919
C 941.644 598.883 946.821 598.803 952 598.786
C 953.929 598.78 957.065 598.22 958.83 599.035
C 958.952 600.423 959.608 603.58 958.942 604.836
C 955.465 605.222 951.804 604.855 948.304 604.876
C 943.836 604.903 939.332 605.299 934.868 604.978
C 931.424 604.731 928.758 604.672 926.256 601.875
C 924.305 599.695 924.271 597.284 924.105 594.513
C 923.87 590.582 923.522 586.544 923.965 582.613 Z"
opacity="1" fill="rgb(236,237,239)" fill-rule="evenodd" />
<path d="
M 939.869 569.017
C 941.089 566.854 942.797 563.163 945.002 561.869
C 946.392 561.054 949.949 561.362 951.412 561.895
C 950.497 563.896 948.538 565.729 947.181 567.467
C 946.63 568.174 946.178 569.203 945.44 569.728
C 943.692 570.443 941.373 570.701 939.598 570
C 939.723 569.31 939.629 569.637 939.869 569.017 Z"
opacity="1" fill="rgb(227,227,228)" fill-rule="evenodd" />

</svg>